<?xml version="1.0" encoding="utf-8"?><svg xml:space="preserve" viewBox="0 0 100 100" y="0px" x="0px" xmlns:xlink="http://www.w3.org/1999/xlink" xmlns="http://www.w3.org/2000/svg" id="Layer_1" version="1.1" width="200px" height="200px" style="width:100%;height:100%;background-color:rgb(255, 255, 255);animation-play-state:paused" ><g class="ldl-scale" style="transform-origin:50% 50% 0px;transform:rotate(0deg) scale(0.8);animation-play-state:paused" ><g style="animation-play-state:paused" ><path d="M90.75,30.91c-0.88-1.87-3.15-2.61-4.94-1.58l-0.01,0.01c1.79-1.03,2.29-3.37,1.11-5.06C79.47,13.61,67.53,6.32,53.84,5.16 C51.78,4.99,50,6.58,50,8.65v0.01c0-2.06-1.77-3.67-3.83-3.49c-12.96,1.12-25.24,7.81-33.09,19.08c-1.18,1.7-0.69,4.04,1.1,5.07 l2.8,1.62l-2.79-1.61c-1.79-1.03-4.06-0.3-4.94,1.57C3.75,42.68,3.41,56.66,9.25,69.09c0.88,1.87,3.15,2.61,4.94,1.58l7.66-4.42 c-6.01-10.42-5.6-22.77,0-32.5l0,0C27.87,23.33,38.78,17.51,50,17.5v0c12.03,0,22.52,6.54,28.14,16.25l0,0 c6.01,10.42,5.6,22.77,0,32.5l0,0C72.13,76.67,61.22,82.49,50,82.5v8.84c0,2.06,1.77,3.67,3.83,3.49 c12.96-1.12,25.24-7.81,33.09-19.08c1.18-1.7,0.69-4.04-1.1-5.07l-2.8-1.62l2.79,1.61c1.79,1.03,4.06,0.3,4.94-1.57 C96.25,57.32,96.59,43.34,90.75,30.91z" stroke-miterlimit="10" stroke-linejoin="round" stroke-linecap="round" stroke-width="3.5" stroke="#323334" fill="#F6B26A" style="stroke:rgb(50, 51, 52);fill:rgb(246, 178, 106);animation-play-state:paused" ></path>
<path d="M78.15,33.75L78.15,33.75C72.52,24.04,62.03,17.5,50,17.5v0c-11.22,0.01-22.13,5.83-28.15,16.25l0,0c-5.6,9.72-6.02,22.08,0,32.5 L50,50v32.5c11.22-0.01,22.13-5.83,28.15-16.25l0,0C83.74,56.52,84.16,44.17,78.15,33.75z" stroke-miterlimit="10" stroke-linejoin="round" stroke-linecap="round" stroke-width="3.5" stroke="#323334" fill="#F5E169" style="stroke:rgb(50, 51, 52);fill:rgb(245, 225, 105);animation-play-state:paused" ></path></g>
<circle r="5.5" cy="32.68" cx="40" stroke-miterlimit="10" stroke-width="3.5" stroke="#323334" fill="#C33836" style="stroke:rgb(50, 51, 52);fill:rgb(195, 56, 54);animation-play-state:paused" ></circle>
<circle r="5.5" cy="50" cx="30" stroke-miterlimit="10" stroke-width="3.5" stroke="#323334" fill="#C33836" style="stroke:rgb(50, 51, 52);fill:rgb(195, 56, 54);animation-play-state:paused" ></circle>
<g style="animation-play-state:paused" ><path d="M21.86,66.25l-7.66,4.42c-1.79,1.03-2.29,3.37-1.11,5.06c7.44,10.66,19.38,17.95,33.07,19.11c2.06,0.17,3.84-1.42,3.84-3.49V82.5 C37.97,82.5,27.48,75.96,21.86,66.25z" stroke-miterlimit="10" stroke-linejoin="round" stroke-linecap="round" stroke-width="3.5" stroke="#323334" fill="#F6B26A" style="stroke:rgb(50, 51, 52);fill:rgb(246, 178, 106);animation-play-state:paused" ></path>
<path d="M50,82.5V50L21.86,66.25C27.48,75.96,37.97,82.5,50,82.5z" stroke-miterlimit="10" stroke-linejoin="round" stroke-linecap="round" stroke-width="3.5" stroke="#323334" fill="#F5E169" style="stroke:rgb(50, 51, 52);fill:rgb(245, 225, 105);animation-play-state:paused" ></path>
<circle r="5.5" cy="67.32" cx="40" stroke-miterlimit="10" stroke-width="3.5" stroke="#323334" fill="#C33836" style="stroke:rgb(50, 51, 52);fill:rgb(195, 56, 54);animation-play-state:paused" ></circle></g>
<circle r="5.5" cy="67.32" cx="60" stroke-miterlimit="10" stroke-width="3.5" stroke="#323334" fill="#C33836" style="stroke:rgb(50, 51, 52);fill:rgb(195, 56, 54);animation-play-state:paused" ></circle>
<circle r="5.5" cy="50" cx="70" stroke-miterlimit="10" stroke-width="3.5" stroke="#323334" fill="#C33836" style="stroke:rgb(50, 51, 52);fill:rgb(195, 56, 54);animation-play-state:paused" ></circle>
<circle r="5.5" cy="32.68" cx="60" stroke-miterlimit="10" stroke-width="3.5" stroke="#323334" fill="#C33836" style="stroke:rgb(50, 51, 52);fill:rgb(195, 56, 54);animation-play-state:paused" ></circle>
<metadata xmlns:d="https://loading.io/stock/" style="animation-play-state:paused" ><d:name style="animation-play-state:paused" >pizza</d:name>


<d:tags style="animation-play-state:paused" >pizza,delicious,food,vegetable,bread,cheese,yummy</d:tags>


<d:license style="animation-play-state:paused" >by</d:license>


<d:slug style="animation-play-state:paused" >c487ft</d:slug></metadata></g><!-- generated by https://loading.io/ --></svg>